<svg width="20" height="26" viewBox="0 0 20 26" fill="inherit" xmlns="http://www.w3.org/2000/svg">
	<path
		d="M19.0234 11.4141C19.0234 11.2937 18.925 11.1953 18.8047 11.1953H17.1641C17.0438 11.1953 16.9453 11.2937 16.9453 11.4141C16.9453 15.2504 13.8363 18.3594 10 18.3594C6.16367 18.3594 3.05469 15.2504 3.05469 11.4141C3.05469 11.2937 2.95625 11.1953 2.83594 11.1953H1.19531C1.075 11.1953 0.976562 11.2937 0.976562 11.4141C0.976562 16.027 4.43828 19.8332 8.90625 20.3719V23.1719H4.9332C4.55859 23.1719 4.25781 23.5629 4.25781 24.0469V25.0312C4.25781 25.1516 4.33438 25.25 4.42734 25.25H15.5727C15.6656 25.25 15.7422 25.1516 15.7422 25.0312V24.0469C15.7422 23.5629 15.4414 23.1719 15.0668 23.1719H10.9844V20.3855C15.5043 19.8934 19.0234 16.0652 19.0234 11.4141ZM10 16.0625C12.5676 16.0625 14.6484 14.0063 14.6484 11.4688V5.34375C14.6484 2.80625 12.5676 0.75 10 0.75C7.43242 0.75 5.35156 2.80625 5.35156 5.34375V11.4688C5.35156 14.0063 7.43242 16.0625 10 16.0625ZM7.42969 5.34375C7.42969 3.96016 8.57539 2.82812 10 2.82812C11.4246 2.82812 12.5703 3.96016 12.5703 5.34375V11.4688C12.5703 12.8523 11.4246 13.9844 10 13.9844C8.57539 13.9844 7.42969 12.8523 7.42969 11.4688V5.34375Z"
		fill="currentColor" />
</svg>
