<svg width="16.000000" height="16.000000" viewBox="0 0 16 16" fill="none" xmlns="http://www.w3.org/2000/svg" xmlns:xlink="http://www.w3.org/1999/xlink">
	<desc>
			Created with Pixso.
	</desc>
	<defs>
		<clipPath id="clip803_527">
			<rect id="ant-design:audio-outlined" rx="0.000000" width="15.000000" height="15.000000" transform="translate(0.500000 0.500000)" fill="white" fill-opacity="0"/>
		</clipPath>
	</defs>
	<rect id="ant-design:audio-outlined" rx="0.000000" width="15.000000" height="15.000000" transform="translate(0.500000 0.500000)" fill="#FFFFFF" fill-opacity="0"/>
	<g clip-path="url(#clip803_527)">
		<path id="Vector" d="M13.15 7.09C13.15 7.02 13.09 6.96 13.03 6.96L12.09 6.96C12.02 6.96 11.96 7.02 11.96 7.09C11.96 9.28 10.19 11.06 8 11.06C5.8 11.06 4.03 9.28 4.03 7.09C4.03 7.02 3.97 6.96 3.9 6.96L2.96 6.96C2.9 6.96 2.84 7.02 2.84 7.09C2.84 9.72 4.82 11.9 7.37 12.21L7.37 13.81L5.1 13.81C4.89 13.81 4.71 14.03 4.71 14.31L4.71 14.87C4.71 14.94 4.76 15 4.81 15L11.18 15C11.23 15 11.28 14.94 11.28 14.87L11.28 14.31C11.28 14.03 11.1 13.81 10.89 13.81L8.56 13.81L8.56 12.22C11.14 11.93 13.15 9.75 13.15 7.09ZM8 9.75C9.46 9.75 10.65 8.57 10.65 7.12L10.65 3.62C10.65 2.17 9.46 1 8 1C6.53 1 5.34 2.17 5.34 3.62L5.34 7.12C5.34 8.57 6.53 9.75 8 9.75ZM6.53 3.62C6.53 2.83 7.18 2.18 8 2.18C8.81 2.18 9.46 2.83 9.46 3.62L9.46 7.12C9.46 7.91 8.81 8.56 8 8.56C7.18 8.56 6.53 7.91 6.53 7.12L6.53 3.62Z" fill="#000000" fill-opacity="1.000000" fill-rule="nonzero"/>
	</g>
</svg>
