<svg width="22" height="22" viewBox="0 0 22 22" fill="none" xmlns="http://www.w3.org/2000/svg">
	<path
		d="M10.9997 18.008C9.76126 17.1363 8.32759 16.5808 6.82426 16.3938C5.75804 16.1772 4.67176 16.0748 3.58384 16.0885C3.44464 16.0897 3.30657 16.0634 3.17761 16.0109C3.04866 15.9585 2.93136 15.881 2.8325 15.783C2.73364 15.685 2.65517 15.5684 2.60162 15.4399C2.54807 15.3114 2.5205 15.1736 2.52051 15.0344L2.53976 5.04912C2.53917 4.7812 2.64062 4.5231 2.82349 4.3273C3.00636 4.13149 3.25692 4.01265 3.52426 3.99495C4.63172 3.97293 5.73828 4.07191 6.82426 4.29012C8.32596 4.48386 9.75851 5.03801 10.9997 5.90528M10.9997 18.008V5.90528M10.9997 18.008C12.2381 17.1363 13.6718 16.5808 15.1751 16.3938C16.2413 16.1772 17.3276 16.0748 18.4155 16.0885C18.5547 16.0897 18.6928 16.0634 18.8217 16.0109C18.9507 15.9585 19.068 15.881 19.1668 15.783C19.2657 15.685 19.3442 15.5684 19.3977 15.4399C19.4513 15.3114 19.4788 15.1736 19.4788 15.0344L19.4587 5.04912C19.4593 4.78134 19.358 4.52338 19.1753 4.32759C18.9926 4.13181 18.7423 4.01288 18.4751 3.99495C17.3676 3.97293 16.2611 4.07191 15.1751 4.29012C13.6734 4.48386 12.2408 5.03801 10.9997 5.90528"
		stroke="#6750A4" stroke-width="1.5" stroke-linecap="round" stroke-linejoin="round" />
</svg>
