<svg width="26" height="32" viewBox="0 0 26 32" fill="none" xmlns="http://www.w3.org/2000/svg">
	<path
		d="M15.167 28.9166H10.8337C6.74841 28.9166 4.70524 28.9166 3.43666 27.4028C2.16808 25.889 2.16699 23.4542 2.16699 18.5833V16C2.16699 11.1291 2.16699 8.693 3.43666 7.18046C4.70633 5.66792 6.74841 5.66663 10.8337 5.66663H15.167C19.2522 5.66663 21.2954 5.66663 22.564 7.18046C23.8326 8.69429 23.8337 11.1291 23.8337 16V18.5833C23.8337 23.4542 23.8337 25.8902 22.564 27.4028C21.8566 28.2475 20.9087 28.6208 19.5003 28.7849M7.58366 5.66663V3.72913M18.417 5.66663V3.72913M23.292 12.125H11.6462M2.16699 12.125H6.36491"
		stroke="url(#paint0_linear_803_878)" stroke-width="1.5" stroke-linecap="round" />
	<path
		d="M19.5 22.4583C19.5 22.8009 19.3859 23.1294 19.1827 23.3717C18.9795 23.6139 18.704 23.75 18.4167 23.75C18.1293 23.75 17.8538 23.6139 17.6506 23.3717C17.4475 23.1294 17.3333 22.8009 17.3333 22.4583C17.3333 22.1158 17.4475 21.7872 17.6506 21.545C17.8538 21.3028 18.1293 21.1667 18.4167 21.1667C18.704 21.1667 18.9795 21.3028 19.1827 21.545C19.3859 21.7872 19.5 22.1158 19.5 22.4583ZM19.5 17.2917C19.5 17.6342 19.3859 17.9628 19.1827 18.205C18.9795 18.4472 18.704 18.5833 18.4167 18.5833C18.1293 18.5833 17.8538 18.4472 17.6506 18.205C17.4475 17.9628 17.3333 17.6342 17.3333 17.2917C17.3333 16.9491 17.4475 16.6206 17.6506 16.3783C17.8538 16.1361 18.1293 16 18.4167 16C18.704 16 18.9795 16.1361 19.1827 16.3783C19.3859 16.6206 19.5 16.9491 19.5 17.2917ZM14.0833 22.4583C14.0833 22.8009 13.9692 23.1294 13.766 23.3717C13.5629 23.6139 13.2873 23.75 13 23.75C12.7127 23.75 12.4371 23.6139 12.234 23.3717C12.0308 23.1294 11.9167 22.8009 11.9167 22.4583C11.9167 22.1158 12.0308 21.7872 12.234 21.545C12.4371 21.3028 12.7127 21.1667 13 21.1667C13.2873 21.1667 13.5629 21.3028 13.766 21.545C13.9692 21.7872 14.0833 22.1158 14.0833 22.4583ZM14.0833 17.2917C14.0833 17.6342 13.9692 17.9628 13.766 18.205C13.5629 18.4472 13.2873 18.5833 13 18.5833C12.7127 18.5833 12.4371 18.4472 12.234 18.205C12.0308 17.9628 11.9167 17.6342 11.9167 17.2917C11.9167 16.9491 12.0308 16.6206 12.234 16.3783C12.4371 16.1361 12.7127 16 13 16C13.2873 16 13.5629 16.1361 13.766 16.3783C13.9692 16.6206 14.0833 16.9491 14.0833 17.2917ZM8.66667 22.4583C8.66667 22.8009 8.55253 23.1294 8.34937 23.3717C8.1462 23.6139 7.87065 23.75 7.58333 23.75C7.29602 23.75 7.02047 23.6139 6.8173 23.3717C6.61414 23.1294 6.5 22.8009 6.5 22.4583C6.5 22.1158 6.61414 21.7872 6.8173 21.545C7.02047 21.3028 7.29602 21.1667 7.58333 21.1667C7.87065 21.1667 8.1462 21.3028 8.34937 21.545C8.55253 21.7872 8.66667 22.1158 8.66667 22.4583ZM8.66667 17.2917C8.66667 17.6342 8.55253 17.9628 8.34937 18.205C8.1462 18.4472 7.87065 18.5833 7.58333 18.5833C7.29602 18.5833 7.02047 18.4472 6.8173 18.205C6.61414 17.9628 6.5 17.6342 6.5 17.2917C6.5 16.9491 6.61414 16.6206 6.8173 16.3783C7.02047 16.1361 7.29602 16 7.58333 16C7.87065 16 8.1462 16.1361 8.34937 16.3783C8.55253 16.6206 8.66667 16.9491 8.66667 17.2917Z"
		fill="url(#paint1_linear_803_878)" />
	<defs>
		<linearGradient id="paint0_linear_803_878" x1="16.463" y1="1.673" x2="31.8185" y2="43.2766"
			gradientUnits="userSpaceOnUse">
			<stop stop-color="#008379" />
			<stop offset="1" stop-color="#1E4E4E" />
		</linearGradient>
		<linearGradient id="paint1_linear_803_878" x1="15.0776" y1="15.3673" x2="17.7354" y2="29.4093"
			gradientUnits="userSpaceOnUse">
			<stop stop-color="#008379" />
			<stop offset="1" stop-color="#1E4E4E" />
		</linearGradient>
	</defs>
</svg>
