<svg width="32" height="32" viewBox="0 0 32 32" fill="none" xmlns="http://www.w3.org/2000/svg">
	<path
		d="M7.99967 11.9999C6.93881 11.9999 5.92139 12.4213 5.17125 13.1715C4.4211 13.9216 3.99967 14.9391 3.99967 15.9999C3.99967 17.0608 4.4211 18.0782 5.17125 18.8283C5.92139 19.5785 6.93881 19.9999 7.99967 19.9999C9.06054 19.9999 10.078 19.5785 10.8281 18.8283C11.5782 18.0782 11.9997 17.0608 11.9997 15.9999C11.9997 14.9391 11.5782 13.9216 10.8281 13.1715C10.078 12.4213 9.06054 11.9999 7.99967 11.9999ZM1.33301 15.9999C1.33314 14.7342 1.6936 13.4946 2.37223 12.4262C3.05087 11.3578 4.01964 10.5046 5.16529 9.96649C6.31093 9.42835 7.58609 9.22747 8.84169 9.38734C10.0973 9.5472 11.2814 10.0612 12.2557 10.8693C13.2534 9.88527 14.5983 9.3335 15.9997 9.33325C17.4597 9.33325 18.781 9.91992 19.7437 10.8693C21.0149 9.81609 22.6317 9.27204 24.281 9.34242C25.9303 9.41281 27.4949 10.0926 28.6718 11.2503C29.8487 12.4079 30.5542 13.961 30.6518 15.609C30.7494 17.2569 30.232 18.8824 29.2 20.1709C28.1679 21.4593 26.6945 22.319 25.065 22.5835C23.4356 22.8481 21.7659 22.4986 20.3792 21.6028C18.9926 20.7071 17.9876 19.3286 17.5589 17.7345C17.1301 16.1403 17.3081 14.4437 18.0583 12.9733C17.8083 12.6691 17.4941 12.4241 17.1381 12.2558C16.7822 12.0875 16.3934 12.0001 15.9997 11.9999C15.173 11.9999 14.4303 12.3773 13.941 12.9733C14.3981 13.8712 14.6456 14.8612 14.6651 15.8686C14.6846 16.876 14.4754 17.8748 14.0533 18.7897C13.6313 19.7047 13.0073 20.5121 12.2283 21.1512C11.4494 21.7904 10.5356 22.2446 9.55586 22.4798C8.57607 22.715 7.55572 22.7251 6.57149 22.5092C5.58726 22.2934 4.66477 21.8572 3.87335 21.2335C3.08194 20.6099 2.44218 19.8149 2.00219 18.9084C1.56219 18.002 1.3334 17.0075 1.33301 15.9999ZM23.9997 11.9999C23.4742 11.9992 22.9537 12.1022 22.4681 12.303C21.9825 12.5037 21.5413 12.7984 21.1697 13.1699C20.7981 13.5415 20.5035 13.9827 20.3027 14.4684C20.102 14.954 19.999 15.4744 19.9997 15.9999C19.9997 16.791 20.2343 17.5644 20.6738 18.2222C21.1133 18.88 21.738 19.3927 22.4689 19.6954C23.1998 19.9982 24.0041 20.0774 24.78 19.9231C25.556 19.7687 26.2687 19.3878 26.8281 18.8283C27.3875 18.2689 27.7685 17.5562 27.9228 16.7803C28.0772 16.0044 27.9979 15.2001 27.6952 14.4692C27.3924 13.7383 26.8798 13.1136 26.222 12.674C25.5642 12.2345 24.7908 11.9999 23.9997 11.9999Z"
		fill="black" />
</svg>
