<svg width="26" height="31" viewBox="0 0 26 31" fill="none" xmlns="http://www.w3.org/2000/svg">
	<path fill-rule="evenodd" clip-rule="evenodd"
		d="M7.43164 12.1233C7.43164 10.6103 7.98975 9.15932 8.98319 8.08947C9.97664 7.01962 11.324 6.41858 12.729 6.41858C14.1339 6.41858 15.4813 7.01962 16.4748 8.08947C17.4682 9.15932 18.0263 10.6103 18.0263 12.1233C18.0263 13.6363 17.4682 15.0874 16.4748 16.1572C15.4813 17.2271 14.1339 17.8281 12.729 17.8281C11.324 17.8281 9.97664 17.2271 8.98319 16.1572C7.98975 15.0874 7.43164 13.6363 7.43164 12.1233ZM12.729 8.22008C11.7677 8.22008 10.8458 8.63132 10.1661 9.36332C9.48635 10.0953 9.10448 11.0881 9.10448 12.1233C9.10448 13.1586 9.48635 14.1514 10.1661 14.8834C10.8458 15.6154 11.7677 16.0266 12.729 16.0266C13.6902 16.0266 14.6122 15.6154 15.2919 14.8834C15.9716 14.1514 16.3535 13.1586 16.3535 12.1233C16.3535 11.0881 15.9716 10.0953 15.2919 9.36332C14.6122 8.63132 13.6902 8.22008 12.729 8.22008Z"
		fill="url(#paint0_linear_803_884)" />
	<path fill-rule="evenodd" clip-rule="evenodd"
		d="M3.27601 10.7507C3.46713 8.26095 4.52039 5.93959 6.22679 4.24723C7.93319 2.55486 10.168 1.61517 12.4878 1.61462H12.9696C15.2894 1.61517 17.5242 2.55486 19.2306 4.24723C20.937 5.93959 21.9902 8.26095 22.1814 10.7507C22.394 13.5242 21.5983 16.2782 19.9621 18.4323L14.6168 25.4714C14.388 25.7726 14.1 26.0154 13.7734 26.1821C13.4469 26.3487 13.09 26.4352 12.7287 26.4352C12.3673 26.4352 12.0105 26.3487 11.6839 26.1821C11.3574 26.0154 11.0694 25.7726 10.8406 25.4714L5.49531 18.4323C3.85909 16.2782 3.06341 13.5242 3.27601 10.7507ZM12.4878 3.41613C10.5881 3.41699 8.75816 4.18675 7.36087 5.57271C5.96359 6.95867 5.10106 8.85958 4.94439 10.8984C4.76738 13.2066 5.42952 15.4986 6.79121 17.2913L12.1365 24.3316C12.2084 24.4263 12.2989 24.5026 12.4015 24.555C12.5041 24.6075 12.6162 24.6347 12.7298 24.6347C12.8434 24.6347 12.9555 24.6075 13.0581 24.555C13.1607 24.5026 13.2512 24.4263 13.3231 24.3316L18.6684 17.2913C20.0293 15.4983 20.6906 13.2063 20.513 10.8984C20.3563 8.85938 19.4936 6.95829 18.0961 5.5723C16.6986 4.18631 14.8683 3.41669 12.9685 3.41613H12.4878Z"
		fill="url(#paint1_linear_803_884)" />
	<defs>
		<linearGradient id="paint0_linear_803_884" x1="14.4222" y1="5.48719" x2="20.9773" y2="24.6589"
			gradientUnits="userSpaceOnUse">
			<stop stop-color="#008379" />
			<stop offset="1" stop-color="#1E4E4E" />
		</linearGradient>
		<linearGradient id="paint1_linear_803_884" x1="15.7609" y1="-0.411547" x2="32.2623" y2="39.3171"
			gradientUnits="userSpaceOnUse">
			<stop stop-color="#008379" />
			<stop offset="1" stop-color="#1E4E4E" />
		</linearGradient>
	</defs>
</svg>
