<svg width="128" height="15" viewBox="0 0 128 15" fill="none" xmlns="http://www.w3.org/2000/svg">
<path d="M1.47363 12.3372C5.05289 12.5302 8.63216 12.7232 12.2114 12.9163L22.9492 13.3023C30.1077 13.4953 37.2663 13.4953 44.4248 13.6884C51.5833 13.6884 58.7419 13.6884 65.9004 13.4953L76.6382 13.1093C80.2175 12.9163 83.7967 12.7232 87.376 12.5302C83.7967 12.3372 80.2175 12.1442 76.6382 11.9511L65.7951 11.5651C58.6366 11.3721 51.4781 11.3721 44.3195 11.3721C37.161 11.5651 30.0025 11.3721 22.8439 11.5651L12.1061 11.9511C8.63215 11.9511 5.05289 12.1442 1.47363 12.3372Z" fill="url(#paint0_linear_1000_1053)"/>
<path d="M2.21056 10.2138C3.26329 10.9859 4.10547 11.951 4.10547 12.3371C4.10547 12.9161 3.26329 13.8813 2.21056 14.4603C1.15784 15.2324 -0.000168324 14.2673 -0.000168324 12.3371C-0.000168324 10.4068 1.15784 9.4417 2.21056 10.2138Z" fill="url(#paint1_linear_1000_1053)"/>
<path d="M86.4285 13.1093C90.4288 5.96735 96.4294 5.19525 101.693 6.3534C110.325 8.47667 118.116 15.0395 126.853 10.2139C127.379 10.0209 127.695 11.372 127.169 11.7581C122.011 16.1977 116.536 15.4256 111.062 13.3023C102.325 9.82785 94.9556 5.38828 86.5338 13.3023C86.4285 13.4953 86.2179 13.3023 86.4285 13.1093Z" fill="url(#paint2_linear_1000_1053)"/>
<path d="M110.322 6.16046C103.69 2.49299 96.6363 0.176689 89.8988 4.42323C89.3724 4.80928 89.0566 3.26508 89.583 2.87904C96.6362 -2.71868 103.584 0.755763 110.427 5.58138C110.532 5.77441 110.532 6.35348 110.322 6.16046Z" fill="url(#paint3_linear_1000_1053)"/>
<defs>
<linearGradient id="paint0_linear_1000_1053" x1="30.6961" y1="11.183" x2="30.6589" y2="15.5298" gradientUnits="userSpaceOnUse">
<stop stop-color="#008379"/>
<stop offset="1" stop-color="#1E4E4E"/>
</linearGradient>
<linearGradient id="paint1_linear_1000_1053" x1="1.3965" y1="9.55709" x2="-1.52055" y2="17.4491" gradientUnits="userSpaceOnUse">
<stop stop-color="#008379"/>
<stop offset="1" stop-color="#1E4E4E"/>
</linearGradient>
<linearGradient id="paint2_linear_1000_1053" x1="100.32" y1="5.17263" x2="99.1294" y2="22.1406" gradientUnits="userSpaceOnUse">
<stop stop-color="#008379"/>
<stop offset="1" stop-color="#1E4E4E"/>
</linearGradient>
<linearGradient id="paint3_linear_1000_1053" x1="96.5188" y1="-0.506066" x2="95.447" y2="11.029" gradientUnits="userSpaceOnUse">
<stop stop-color="#008379"/>
<stop offset="1" stop-color="#1E4E4E"/>
</linearGradient>
</defs>
</svg>
