<svg width="128" height="15" viewBox="0 0 128 15" fill="none" xmlns="http://www.w3.org/2000/svg">
<path d="M126.526 12.3372C122.947 12.5302 119.368 12.7232 115.789 12.9163L105.051 13.3023C97.8923 13.4953 90.7337 13.4953 83.5752 13.6884C76.4167 13.6884 69.2581 13.6884 62.0996 13.4953L51.3618 13.1093C47.7825 12.9163 44.2033 12.7232 40.624 12.5302C44.2033 12.3372 47.7825 12.1442 51.3618 11.9511L62.2049 11.5651C69.3634 11.3721 76.5219 11.3721 83.6805 11.3721C90.839 11.5651 97.9975 11.3721 105.156 11.5651L115.894 11.9511C119.368 11.9511 122.947 12.1442 126.526 12.3372Z" fill="url(#paint0_linear_1000_1041)"/>
<path d="M125.789 10.2138C124.737 10.9859 123.895 11.951 123.895 12.3371C123.895 12.9161 124.737 13.8813 125.789 14.4603C126.842 15.2324 128 14.2673 128 12.3371C128 10.4068 126.842 9.4417 125.789 10.2138Z" fill="url(#paint1_linear_1000_1041)"/>
<path d="M41.5715 13.1093C37.5712 5.96735 31.5706 5.19525 26.307 6.3534C17.6746 8.47667 9.88449 15.0395 1.14687 10.2139C0.62051 10.0209 0.304689 11.372 0.831052 11.7581C5.9894 16.1977 11.4636 15.4256 16.9377 13.3023C25.6754 9.82785 33.0444 5.38828 41.4662 13.3023C41.5715 13.4953 41.7821 13.3023 41.5715 13.1093Z" fill="url(#paint2_linear_1000_1041)"/>
<path d="M17.6783 6.16046C24.3105 2.49299 31.3637 0.176689 38.1012 4.42323C38.6276 4.80928 38.9434 3.26508 38.417 2.87904C31.3638 -2.71868 24.4158 0.755763 17.5731 5.58138C17.4678 5.77441 17.4678 6.35348 17.6783 6.16046Z" fill="url(#paint3_linear_1000_1041)"/>
<defs>
<linearGradient id="paint0_linear_1000_1041" x1="97.3039" y1="11.183" x2="97.3411" y2="15.5298" gradientUnits="userSpaceOnUse">
<stop stop-color="#008379"/>
<stop offset="1" stop-color="#1E4E4E"/>
</linearGradient>
<linearGradient id="paint1_linear_1000_1041" x1="126.604" y1="9.55709" x2="129.521" y2="17.4491" gradientUnits="userSpaceOnUse">
<stop stop-color="#008379"/>
<stop offset="1" stop-color="#1E4E4E"/>
</linearGradient>
<linearGradient id="paint2_linear_1000_1041" x1="27.6797" y1="5.17263" x2="28.8706" y2="22.1406" gradientUnits="userSpaceOnUse">
<stop stop-color="#008379"/>
<stop offset="1" stop-color="#1E4E4E"/>
</linearGradient>
<linearGradient id="paint3_linear_1000_1041" x1="31.4812" y1="-0.506066" x2="32.553" y2="11.029" gradientUnits="userSpaceOnUse">
<stop stop-color="#008379"/>
<stop offset="1" stop-color="#1E4E4E"/>
</linearGradient>
</defs>
</svg>
