<svg width="242" height="8" viewBox="0 0 242 8" fill="none" xmlns="http://www.w3.org/2000/svg">
<path d="M1.40039 6.40015C4.80039 6.30015 8.20039 6.20015 11.6004 6.10015L21.8004 6.00015C28.6004 5.90015 35.4004 5.90015 42.2004 5.90015C49.0004 5.90015 55.8004 5.90015 62.6004 6.00015L72.8004 6.20015C76.2004 6.30015 79.6004 6.40015 83.0004 6.50015C79.6004 6.60015 76.2004 6.70015 72.8004 6.80015L62.5004 6.90015C55.7004 7.00015 49.0004 7.00015 42.2004 7.10015C35.4004 7.00015 28.6004 7.00015 21.8004 6.90015L11.6004 6.80015C8.20039 6.70015 4.80039 6.60015 1.40039 6.40015Z" fill="url(#paint0_linear_935_537)"/>
<path d="M2.1 5.30019C3.1 5.70019 3.9 6.20019 3.9 6.40019C3.9 6.70019 3.1 7.20019 2.1 7.50019C1.1 8.00019 0 7.50019 0 6.40019C0 5.40019 1.1 4.90019 2.1 5.30019Z" fill="url(#paint1_linear_935_537)"/>
<path d="M82.2002 7.00013C90.1002 2.90013 97.3002 5.20013 105.5 7.00013C110.7 8.10013 115.8 8.50013 120.8 6.20013C121.3 6.00013 120.9 5.20013 120.5 5.40013C112.2 7.90013 104.8 4.50013 96.6002 3.40013C91.6002 2.70013 85.9002 3.20013 82.1002 6.90013C81.9002 6.90013 82.1002 7.00013 82.2002 7.00013Z" fill="url(#paint2_linear_935_537)"/>
<path d="M104.9 2.90008C98.4 0.400082 91.8 -1.39992 85.1 1.50008C84.7 1.70008 85 2.50008 85.4 2.30008C91.7 0.100082 98.5 1.40008 104.8 3.20008C105 3.30008 105 3.00008 104.9 2.90008Z" fill="url(#paint3_linear_935_537)"/>
<path d="M239.9 6.3999C236.5 6.4999 233.1 6.5999 229.7 6.6999L219.5 6.8999C212.7 6.9999 205.9 6.9999 199.1 7.0999C192.3 7.0999 185.5 7.0999 178.7 6.9999L168.5 6.7999C165.1 6.6999 161.7 6.5999 158.3 6.4999C161.7 6.3999 165.1 6.2999 168.5 6.1999L178.8 5.9999C185.6 5.8999 192.4 5.8999 199.2 5.8999C206 5.9999 212.8 5.8999 219.6 5.9999L229.8 6.1999C233.1 6.1999 236.5 6.2999 239.9 6.3999Z" fill="url(#paint4_linear_935_537)"/>
<path d="M239.199 5.29995C238.199 5.69995 237.399 6.19995 237.399 6.39995C237.399 6.69995 238.199 7.19995 239.199 7.49995C240.199 7.89995 241.299 7.39995 241.299 6.39995C241.299 5.39995 240.199 4.89995 239.199 5.29995Z" fill="url(#paint5_linear_935_537)"/>
<path d="M159.2 6.79999C155.4 3.09999 149.7 2.69999 144.7 3.29999C136.5 4.39999 129.1 7.79999 120.8 5.29999C120.3 5.19999 120 5.89999 120.5 6.09999C125.4 8.39999 130.6 7.99999 135.8 6.89999C144.1 5.09999 151.1 2.79999 159.1 6.89999C159.2 6.99999 159.4 6.89999 159.2 6.79999Z" fill="url(#paint6_linear_935_537)"/>
<path d="M136.5 3.20008C142.8 1.30008 149.5 0.100082 155.9 2.30008C156.4 2.50008 156.7 1.70008 156.2 1.50008C149.5 -1.39992 142.9 0.400082 136.4 2.90008C136.3 3.00008 136.3 3.30008 136.5 3.20008Z" fill="url(#paint7_linear_935_537)"/>
<defs>
<linearGradient id="paint0_linear_935_537" x1="55.2415" y1="5.80219" x2="55.252" y2="8.05426" gradientUnits="userSpaceOnUse">
<stop stop-color="#008379"/>
<stop offset="1" stop-color="#1E4E4E"/>
</linearGradient>
<linearGradient id="paint1_linear_935_537" x1="2.57329" y1="4.95539" x2="3.51314" y2="9.51428" gradientUnits="userSpaceOnUse">
<stop stop-color="#008379"/>
<stop offset="1" stop-color="#1E4E4E"/>
</linearGradient>
<linearGradient id="paint2_linear_935_537" x1="107.76" y1="2.74347" x2="108.104" y2="11.642" gradientUnits="userSpaceOnUse">
<stop stop-color="#008379"/>
<stop offset="1" stop-color="#1E4E4E"/>
</linearGradient>
<linearGradient id="paint3_linear_935_537" x1="98.1435" y1="-0.253632" x2="98.4492" y2="5.75838" gradientUnits="userSpaceOnUse">
<stop stop-color="#008379"/>
<stop offset="1" stop-color="#1E4E4E"/>
</linearGradient>
<linearGradient id="paint4_linear_935_537" x1="212.141" y1="5.80194" x2="212.151" y2="8.05402" gradientUnits="userSpaceOnUse">
<stop stop-color="#008379"/>
<stop offset="1" stop-color="#1E4E4E"/>
</linearGradient>
<linearGradient id="paint5_linear_935_537" x1="239.973" y1="4.95973" x2="240.873" y2="9.42546" gradientUnits="userSpaceOnUse">
<stop stop-color="#008379"/>
<stop offset="1" stop-color="#1E4E4E"/>
</linearGradient>
<linearGradient id="paint6_linear_935_537" x1="146.004" y1="2.68827" x2="146.342" y2="11.5092" gradientUnits="userSpaceOnUse">
<stop stop-color="#008379"/>
<stop offset="1" stop-color="#1E4E4E"/>
</linearGradient>
<linearGradient id="paint7_linear_935_537" x1="149.611" y1="-0.253632" x2="149.916" y2="5.75848" gradientUnits="userSpaceOnUse">
<stop stop-color="#008379"/>
<stop offset="1" stop-color="#1E4E4E"/>
</linearGradient>
</defs>
</svg>
