<svg width="24" height="16" viewBox="0 0 24 16" fill="inherit" xmlns="http://www.w3.org/2000/svg">
	<path
		d="M1.5 12.3751V3.62508C1.5 3.00624 1.74583 2.41275 2.18342 1.97517C2.621 1.53758 3.21449 1.29175 3.83333 1.29175H13.75C14.3688 1.29175 14.9623 1.53758 15.3999 1.97517C15.8375 2.41275 16.0833 3.00624 16.0833 3.62508V12.3751C16.0833 12.9939 15.8375 13.5874 15.3999 14.025C14.9623 14.4626 14.3688 14.7084 13.75 14.7084H3.83333C3.21449 14.7084 2.621 14.4626 2.18342 14.025C1.74583 13.5874 1.5 12.9939 1.5 12.3751ZM21.5293 2.15625L16.8627 6.31308C16.8012 6.3677 16.7519 6.4347 16.7181 6.5097C16.6843 6.5847 16.6668 6.66599 16.6667 6.74825V8.82258C16.6668 8.90484 16.6843 8.98613 16.7181 9.06113C16.7519 9.13613 16.8012 9.20313 16.8627 9.25775L21.5293 13.4146C21.6134 13.4892 21.7173 13.538 21.8284 13.555C21.9396 13.572 22.0533 13.5566 22.1558 13.5105C22.2584 13.4644 22.3454 13.3896 22.4065 13.2952C22.4676 13.2007 22.5 13.0907 22.5 12.9782V2.59258C22.5 2.48014 22.4676 2.37008 22.4065 2.27566C22.3454 2.18124 22.2584 2.10648 22.1558 2.06038C22.0533 2.01427 21.9396 1.9988 21.8284 2.0158C21.7173 2.03281 21.6134 2.08159 21.5293 2.15625Z"
		stroke="inherit" stroke-width="1.5" stroke-linecap="round" stroke-linejoin="round" />
</svg>
