<svg width="17.269531" height="12.089111" viewBox="0 0 17.2695 12.0891" fill="none" xmlns="http://www.w3.org/2000/svg" xmlns:xlink="http://www.w3.org/1999/xlink">
	<desc>
			Created with Pixso.
	</desc>
	<defs/>
	<path id="Vector" d="M15.15 2.35C15.28 2.28 15.43 2.25 15.58 2.26C15.72 2.26 15.87 2.31 15.99 2.39C16.12 2.46 16.22 2.57 16.29 2.7C16.36 2.83 16.4 2.97 16.4 3.12L16.4 8.96C16.4 9.11 16.36 9.25 16.29 9.38C16.22 9.51 16.12 9.62 15.99 9.69C15.87 9.77 15.72 9.82 15.58 9.82C15.43 9.83 15.28 9.8 15.15 9.73L11.22 7.77L11.22 4.31L15.15 2.35ZM1.36 1.36C1.69 1.04 2.13 0.86 2.58 0.86L9.49 0.86C9.95 0.86 10.39 1.04 10.71 1.36C11.04 1.69 11.22 2.13 11.22 2.59L11.22 9.49C11.22 9.95 11.04 10.39 10.71 10.71C10.39 11.04 9.95 11.22 9.49 11.22L2.58 11.22C2.13 11.22 1.69 11.04 1.36 10.71C1.04 10.39 0.86 9.95 0.86 9.49L0.86 2.59C0.86 2.13 1.04 1.69 1.36 1.36Z" stroke="#4E4E4E" stroke-opacity="1.000000" stroke-width="1.727014" stroke-linejoin="round"/>
</svg>
