<svg width="26" height="30" viewBox="0 0 26 30" fill="none" xmlns="http://www.w3.org/2000/svg">
	<g clip-path="url(#clip0_803_874)">
		<path
			d="M10.8337 29.8572V23.0476H7.04199V22.7381L7.11999 22.5524C8.85215 18.3947 9.75076 13.8478 9.75033 9.24288V8.83678C10.7913 8.40171 11.8919 8.18243 13.0003 8.18926C14.3957 8.18926 15.5039 8.51859 16.2503 8.83678V9.24288C16.2503 13.8486 17.1495 18.3936 18.8807 22.5512L18.9587 22.7369V23.0464H15.167V29.8572M12.8378 5.71431C12.8378 5.71431 11.1045 4.47621 11.1045 2.92859C11.1045 2.35462 11.304 1.80415 11.6591 1.39828C12.0143 0.992417 12.4959 0.764404 12.9982 0.764404C13.5004 0.764404 13.9821 0.992417 14.3372 1.39828C14.6923 1.80415 14.8918 2.35462 14.8918 2.92859C14.8918 4.47621 13.1628 5.71431 13.1628 5.71431H12.8378Z"
			stroke="url(#paint0_linear_803_874)" stroke-width="2" />
	</g>
	<defs>
		<linearGradient id="paint0_linear_803_874" x1="14.9048" y1="-1.61051" x2="41.3426" y2="32.4974"
			gradientUnits="userSpaceOnUse">
			<stop stop-color="#008379" />
			<stop offset="1" stop-color="#1E4E4E" />
		</linearGradient>
		<clipPath id="clip0_803_874">
			<rect width="26" height="29.7143" fill="white" transform="translate(0 0.142822)" />
		</clipPath>
	</defs>
</svg>
