<svg width="33" height="33" viewBox="0 0 33 33" fill="inherit" xmlns="http://www.w3.org/2000/svg">
	<g clip-path="url(#clip0_1482_1523)">
		<path
			d="M16.7605 4.25065L16.7804 4.2502C17.0719 4.24363 17.3126 4.39914 17.4286 4.6216C17.5459 4.84629 17.5313 5.13455 17.3303 5.35499C17.038 5.68392 16.8819 6.09043 16.8816 6.50878C16.8817 7.51101 17.7611 8.35093 18.9029 8.35105C19.3734 8.35059 19.8283 8.1985 20.1894 7.92711C20.4439 7.72688 20.7804 7.73851 21.0173 7.88831C21.1392 7.96537 21.2414 8.08256 21.2933 8.23374C21.345 8.38401 21.3414 8.55127 21.2811 8.72049C20.8408 10.212 19.4253 11.2503 17.7906 11.3483V11.7392C18.2658 12.3873 19.0241 12.9472 19.9424 13.4987C20.4139 13.7819 20.9206 14.0588 21.4446 14.3429C21.4945 14.37 21.5446 14.3971 21.5949 14.4243C22.0701 14.6818 22.5574 14.9458 23.0371 15.223C25.218 16.4837 27.2934 18.1063 27.3341 21.1364C27.3525 22.5014 27.0453 24.2932 25.6949 25.9051H25.7207C26.5864 25.9051 27.3359 26.5669 27.3359 27.4115L27.3359 29.0793C27.3359 29.0795 27.3359 29.0796 27.3359 29.0798V29.0803H27.0859C27.0869 29.3125 26.882 29.5009 26.6297 29.5L16.7605 4.25065ZM16.7605 4.25065L16.7409 4.25424C14.6401 4.63942 13.6537 6.38055 13.6537 7.76424C13.6537 9.38401 14.8173 10.7344 16.3816 11.1882V11.7369C15.9064 12.3867 15.1509 12.9528 14.2349 13.5071C13.6594 13.8552 13.0406 14.1876 12.4022 14.5305C11.9862 14.754 11.5618 14.9819 11.1358 15.2216C8.75366 16.5615 6.85785 18.2828 6.8362 21.1379C6.82204 22.9945 7.39109 24.3761 8.03538 25.3359C8.2816 25.721 8.71939 25.721 8.99977 25.5617C9.14191 25.4809 9.26865 25.3486 9.3232 25.1747C9.38023 24.9929 9.34862 24.7953 9.22366 24.6179C8.70957 23.852 8.2242 22.735 8.24517 21.1431C8.27688 18.731 9.97868 17.4553 11.8655 16.3646C12.3335 16.094 12.8196 15.838 13.3099 15.58L13.3241 15.5725C13.8082 15.3178 14.2964 15.061 14.7665 14.7899C15.6263 14.294 16.4414 13.7417 17.0851 13.0432C17.7239 13.7372 18.5118 14.2655 19.3574 14.7488C19.7593 14.9786 20.1785 15.2005 20.6027 15.425C20.6705 15.4609 20.7385 15.4969 20.8065 15.533C21.3017 15.7956 21.8031 16.0651 22.3019 16.3628C24.3627 17.5926 25.9676 18.8572 25.9252 21.1351C25.8896 23.0468 25.2878 24.7333 23.6904 25.9051H8.4479C7.58133 25.9051 6.83619 26.5677 6.83619 27.4115V29.0799V29.0803H7.08619L16.7605 4.25065ZM15.0626 7.76454C15.0631 7.31463 15.2113 6.89024 15.4717 6.5324C15.4854 8.26508 16.9987 9.6483 18.8259 9.68628C18.4504 9.89778 18.0101 10.0193 17.5402 10.0198C16.1465 10.0197 15.0628 8.99669 15.0626 7.76454ZM8.4479 27.2411H25.7207C25.8617 27.2411 25.9269 27.3295 25.9269 27.4115V28.414H8.24519V27.4115C8.24519 27.327 8.30956 27.2411 8.4479 27.2411Z"
			fill="currentColor" stroke="currentColor" stroke-width="0.5" />
	</g>
	<defs>
		<clipPath id="clip0_1482_1523">
			<rect width="32" height="32" fill="currentColor" transform="translate(0.0859375 0.5)" />
		</clipPath>
	</defs>
</svg>
