<svg width="32" height="33" viewBox="0 0 32 33" fill="inherit" xmlns="http://www.w3.org/2000/svg">
<g clip-path="url(#clip0_1482_1504)">
<path d="M24.4281 4.71758L21.4587 5.90539L20.8783 4.57812L19.5609 4.72086C18.239 4.86354 17.0878 5.34118 15.987 6.21044C14.886 5.33905 13.7429 4.86184 12.4391 4.7208L11.1213 4.57812L10.5413 5.90539L7.57129 4.71758L2 17.7173L5.32675 18.986V28.4215L15.9863 23.0918L26.6459 28.4215V18.9947L30 17.7177L24.4281 4.71758ZM6.96672 25.7681V19.6119L13.9507 22.2762L6.96672 25.7681ZM15.1665 20.9844L4.18001 16.7933L8.4482 6.83415L9.88353 7.40864L6.21734 15.7935L15.1664 19.2352L15.1665 20.9844ZM15.1665 17.4778L8.99037 15.1027C10.0455 14.5635 11.2984 14.4936 12.4419 14.9589L15.1664 16.1516L15.1665 17.4778ZM15.1665 14.3614L13.0716 13.4446C11.7739 12.9133 10.374 12.8767 9.10363 13.2856L12.1417 6.33835C12.3105 6.38134 13.6119 6.33988 15.1665 7.659V14.3614ZM16.8062 7.66004C18.3317 6.37215 19.7717 6.36039 19.8583 6.33841L22.8838 13.2587C21.6867 12.8772 20.3851 12.9286 19.124 13.4446L16.8062 14.3937V7.66004ZM16.8062 16.1659L19.745 14.9626C20.8562 14.5073 22.0158 14.5669 23.0222 15.0961L16.8062 17.4795V16.1659ZM25.0059 25.7681L18.0237 22.2768L25.0059 19.6188V25.7681ZM16.8062 20.9855V19.2356L25.7826 15.7941L22.1158 7.40864L23.5514 6.8342L27.8196 16.7929L16.8062 20.9855Z" fill="#F5F5F5"/>
</g>
<defs>
<clipPath id="clip0_1482_1504">
<rect width="28" height="28" fill="currentColor" transform="translate(2 2.5)"/>
</clipPath>
</defs>
</svg>
