<svg width="24" height="24" viewBox="0 0 24 24" fill="none" xmlns="http://www.w3.org/2000/svg">
<path d="M17.833 11.9999V1.49992C17.833 1.1905 17.7101 0.893753 17.4913 0.674961C17.2725 0.456168 16.9758 0.333252 16.6663 0.333252H1.49967C1.19026 0.333252 0.893509 0.456168 0.674717 0.674961C0.455924 0.893753 0.333008 1.1905 0.333008 1.49992V17.8333L4.99967 13.1666H16.6663C16.9758 13.1666 17.2725 13.0437 17.4913 12.8249C17.7101 12.6061 17.833 12.3093 17.833 11.9999ZM22.4997 4.99992H20.1663V15.4999H4.99967V17.8333C4.99967 18.1427 5.12259 18.4394 5.34138 18.6582C5.56018 18.877 5.85692 18.9999 6.16634 18.9999H18.9997L23.6663 23.6666V6.16659C23.6663 5.85717 23.5434 5.56042 23.3246 5.34163C23.1058 5.12284 22.8091 4.99992 22.4997 4.99992Z" fill="#FF9500"/>
</svg>
