<svg width="20.000000" height="19.920044" viewBox="0 0 20 19.92" fill="none" xmlns="http://www.w3.org/2000/svg" xmlns:xlink="http://www.w3.org/1999/xlink">
	<desc>
			Created with Pixso.
	</desc>
	<defs/>
	<path id="Vector" d="M10 0C4.5 0 0 4.48 0 10.02C0 15.02 3.66 19.17 8.44 19.92L8.44 12.92L5.9 12.92L5.9 10.02L8.44 10.02L8.44 7.81C8.44 5.3 9.92 3.92 12.21 3.92C13.3 3.92 14.45 4.1 14.45 4.1L14.45 6.57L13.19 6.57C11.95 6.57 11.55 7.34 11.55 8.14L11.55 10.02L14.33 10.02L13.88 12.92L11.55 12.92L11.55 19.92C13.91 19.54 16.06 18.34 17.61 16.53C19.15 14.71 20 12.4 20 10.02C20 4.48 15.5 0 10 0Z" fill="#FFFFFF" fill-opacity="1.000000" fill-rule="nonzero"/>
</svg>
