<svg width="24" height="24" viewBox="0 0 24 24" fill="none" xmlns="http://www.w3.org/2000/svg">
<path d="M11.99 2C6.53 2 2.08 6.45 2.08 11.91C2.08 13.66 2.54 15.36 3.4 16.86L2 22L7.25 20.62C8.7 21.41 10.33 21.83 11.99 21.83C17.45 21.83 21.9 17.38 21.9 11.92C21.9 9.27 20.87 6.78 19 4.91C17.13 3.03 14.64 2 11.99 2ZM12 3.67C14.2 3.67 16.26 4.53 17.82 6.09C19.37 7.65 20.23 9.72 20.23 11.92C20.23 16.46 16.53 20.15 11.99 20.15C10.51 20.15 9.06 19.76 7.8 19L7.5 18.83L4.38 19.65L5.21 16.61L5.01 16.29C4.19 15 3.75 13.47 3.75 11.91C3.76 7.37 7.45 3.67 12 3.67ZM8.48 7.33C8.32 7.33 8.05 7.39 7.82 7.64C7.6 7.89 6.95 8.5 6.95 9.71C6.95 10.93 7.84 12.1 7.95 12.27C8.09 12.44 9.71 14.94 12.2 16C12.79 16.27 13.25 16.42 13.61 16.53C14.2 16.72 14.74 16.69 15.17 16.63C15.65 16.56 16.63 16.03 16.84 15.45C17.05 14.87 17.05 14.38 16.99 14.27C16.92 14.17 16.76 14.11 16.51 14C16.26 13.86 15.04 13.26 14.82 13.18C14.59 13.1 14.45 13.06 14.26 13.3C14.1 13.55 13.62 14.11 13.48 14.27C13.33 14.44 13.19 14.46 12.95 14.34C12.69 14.21 11.89 13.95 10.95 13.11C10.21 12.45 9.72 11.64 9.57 11.39C9.45 11.15 9.56 11 9.68 10.89C9.79 10.78 9.95 10.6 10.05 10.45C10.18 10.31 10.22 10.2 10.3 10.04C10.38 9.87 10.34 9.73 10.28 9.61C10.22 9.5 9.72 8.26 9.51 7.77C9.31 7.29 9.11 7.35 8.95 7.34C8.81 7.34 8.65 7.33 8.48 7.33Z" fill="#075E54"/>
</svg>
